<svg xmlns="http://www.w3.org/2000/svg" viewBox="0 0 480 415" width="480" height="415" font-family="'DejaVu Sans', 'Helvetica Neue', Helvetica, Arial, sans-serif" role="img">
<title>Figure 1: Scaling of Normalized nonsense with Regime for AWOM (ours) and baselines. Results averaged over a single run. ★ denotes results reported in [28]. Error bars denote one standard deviation over 5 runs.</title>
<defs><pattern id="hatch0" width="5" height="5" patternUnits="userSpaceOnUse" patternTransform="rotate(45)"><line x1="0" y1="0" x2="0" y2="5" stroke="#555555" stroke-width="1"/></pattern><pattern id="hatch1" width="5" height="5" patternUnits="userSpaceOnUse" patternTransform="rotate(135)"><line x1="0" y1="0" x2="0" y2="5" stroke="#555555" stroke-width="1"/></pattern><pattern id="hatch2" width="5" height="5" patternUnits="userSpaceOnUse" patternTransform="rotate(0)"><line x1="0" y1="0" x2="0" y2="5" stroke="#555555" stroke-width="1"/></pattern><pattern id="hatch3" width="5" height="5" patternUnits="userSpaceOnUse" patternTransform="rotate(90)"><line x1="0" y1="0" x2="0" y2="5" stroke="#555555" stroke-width="1"/></pattern></defs>
<rect x="0" y="0" width="480" height="415" fill="#ffffff"/>
<g transform="translate(0,0)">
<clipPath id="clip0"><rect x="46" y="14" width="422" height="310" /></clipPath>
<g clip-path="url(#clip0)">
<line x1="116.33" y1="14" x2="116.33" y2="324" stroke="#b0b0b0" stroke-width="0.8" opacity="0.9"/>
<line x1="257" y1="14" x2="257" y2="324" stroke="#b0b0b0" stroke-width="0.8" opacity="0.9"/>
<line x1="397.67" y1="14" x2="397.67" y2="324" stroke="#b0b0b0" stroke-width="0.8" opacity="0.9"/>
<line x1="46" y1="324" x2="468" y2="324" stroke="#b0b0b0" stroke-width="0.8" opacity="0.9"/>
<line x1="46" y1="246.5" x2="468" y2="246.5" stroke="#b0b0b0" stroke-width="0.8" opacity="0.9"/>
<line x1="46" y1="169" x2="468" y2="169" stroke="#b0b0b0" stroke-width="0.8" opacity="0.9"/>
<line x1="46" y1="91.5" x2="468" y2="91.5" stroke="#b0b0b0" stroke-width="0.8" opacity="0.9"/>
<line x1="46" y1="14" x2="468" y2="14" stroke="#b0b0b0" stroke-width="0.8" opacity="0.9"/>
<rect x="63.38" y="184.4" width="34.64" height="139.6" fill="#1f77b4" stroke="none" stroke-width="0"/>
<line x1="80.7" y1="212.46" x2="80.7" y2="156.35" stroke="#262626" stroke-width="0.9"/>
<line x1="73.57" y1="212.46" x2="87.82" y2="212.46" stroke="#262626" stroke-width="0.9"/>
<line x1="73.57" y1="156.35" x2="87.82" y2="156.35" stroke="#262626" stroke-width="0.9"/>
<rect x="204.05" y="236.71" width="34.64" height="87.29" fill="#1f77b4" stroke="none" stroke-width="0"/>
<line x1="221.36" y1="250.05" x2="221.36" y2="223.37" stroke="#262626" stroke-width="0.9"/>
<line x1="214.24" y1="250.05" x2="228.49" y2="250.05" stroke="#262626" stroke-width="0.9"/>
<line x1="214.24" y1="223.37" x2="228.49" y2="223.37" stroke="#262626" stroke-width="0.9"/>
<rect x="344.71" y="216" width="34.64" height="108" fill="#1f77b4" stroke="none" stroke-width="0"/>
<line x1="362.03" y1="236.69" x2="362.03" y2="195.31" stroke="#262626" stroke-width="0.9"/>
<line x1="354.9" y1="236.69" x2="369.16" y2="236.69" stroke="#262626" stroke-width="0.9"/>
<line x1="354.9" y1="195.31" x2="369.16" y2="195.31" stroke="#262626" stroke-width="0.9"/>
<rect x="99.02" y="174.46" width="34.64" height="149.54" fill="#ff7f0e" stroke="none" stroke-width="0"/>
<line x1="116.33" y1="201.56" x2="116.33" y2="147.36" stroke="#262626" stroke-width="0.9"/>
<line x1="109.21" y1="201.56" x2="123.46" y2="201.56" stroke="#262626" stroke-width="0.9"/>
<line x1="109.21" y1="147.36" x2="123.46" y2="147.36" stroke="#262626" stroke-width="0.9"/>
<rect x="239.68" y="230.89" width="34.64" height="93.11" fill="#ff7f0e" stroke="none" stroke-width="0"/>
<line x1="257" y1="246.59" x2="257" y2="215.2" stroke="#262626" stroke-width="0.9"/>
<line x1="249.87" y1="246.59" x2="264.13" y2="246.59" stroke="#262626" stroke-width="0.9"/>
<line x1="249.87" y1="215.2" x2="264.13" y2="215.2" stroke="#262626" stroke-width="0.9"/>
<rect x="380.35" y="208.8" width="34.64" height="115.2" fill="#ff7f0e" stroke="none" stroke-width="0"/>
<line x1="397.67" y1="226.4" x2="397.67" y2="191.19" stroke="#262626" stroke-width="0.9"/>
<line x1="390.54" y1="226.4" x2="404.79" y2="226.4" stroke="#262626" stroke-width="0.9"/>
<line x1="390.54" y1="191.19" x2="404.79" y2="191.19" stroke="#262626" stroke-width="0.9"/>
<rect x="134.65" y="175.1" width="34.64" height="148.9" fill="#2ca02c" stroke="none" stroke-width="0"/>
<line x1="151.97" y1="203.55" x2="151.97" y2="146.64" stroke="#262626" stroke-width="0.9"/>
<line x1="144.84" y1="203.55" x2="159.1" y2="203.55" stroke="#262626" stroke-width="0.9"/>
<line x1="144.84" y1="146.64" x2="159.1" y2="146.64" stroke="#262626" stroke-width="0.9"/>
<rect x="275.32" y="220.99" width="34.64" height="103.01" fill="#2ca02c" stroke="none" stroke-width="0"/>
<line x1="292.64" y1="236.91" x2="292.64" y2="205.07" stroke="#262626" stroke-width="0.9"/>
<line x1="285.51" y1="236.91" x2="299.76" y2="236.91" stroke="#262626" stroke-width="0.9"/>
<line x1="285.51" y1="205.07" x2="299.76" y2="205.07" stroke="#262626" stroke-width="0.9"/>
<rect x="415.98" y="198.17" width="34.64" height="125.83" fill="#2ca02c" stroke="none" stroke-width="0"/>
<line x1="433.3" y1="223.18" x2="433.3" y2="173.15" stroke="#262626" stroke-width="0.9"/>
<line x1="426.18" y1="223.18" x2="440.43" y2="223.18" stroke="#262626" stroke-width="0.9"/>
<line x1="426.18" y1="173.15" x2="440.43" y2="173.15" stroke="#262626" stroke-width="0.9"/>
<text x="397.67" y="186.04" font-size="9.5" text-anchor="middle" fill="#262626">★★</text>
<rect x="122.33" y="168.4" width="44.8" height="13" fill="#ffffff" stroke="#262626" stroke-width="0.7" opacity="0.92"/>
<text x="126.33" y="177.9" font-size="8.5" text-anchor="start" fill="#262626">see text</text>
<line x1="116.33" y1="184.4" x2="122.33" y2="177.4" stroke="#262626" stroke-width="0.6"/>
</g>
<rect x="46" y="14" width="422" height="310" fill="none" stroke="#262626" stroke-width="0.9"/>
<line x1="116.33" y1="324" x2="116.33" y2="328" stroke="#262626" stroke-width="0.9"/>
<text x="116.33" y="338" font-size="8.5" text-anchor="middle" fill="#262626">Real-world</text>
<line x1="257" y1="324" x2="257" y2="328" stroke="#262626" stroke-width="0.9"/>
<text x="257" y="338" font-size="8.5" text-anchor="middle" fill="#262626">Noisy</text>
<line x1="397.67" y1="324" x2="397.67" y2="328" stroke="#262626" stroke-width="0.9"/>
<text x="397.67" y="338" font-size="8.5" text-anchor="middle" fill="#262626">Quabosh-v2</text>
<line x1="46" y1="324" x2="42" y2="324" stroke="#262626" stroke-width="0.9"/>
<text x="39" y="327" font-size="8.5" text-anchor="end" fill="#262626">0</text>
<line x1="46" y1="246.5" x2="42" y2="246.5" stroke="#262626" stroke-width="0.9"/>
<text x="39" y="249.5" font-size="8.5" text-anchor="end" fill="#262626">0.5</text>
<line x1="46" y1="169" x2="42" y2="169" stroke="#262626" stroke-width="0.9"/>
<text x="39" y="172" font-size="8.5" text-anchor="end" fill="#262626">1</text>
<line x1="46" y1="91.5" x2="42" y2="91.5" stroke="#262626" stroke-width="0.9"/>
<text x="39" y="94.5" font-size="8.5" text-anchor="end" fill="#262626">1.5</text>
<line x1="46" y1="14" x2="42" y2="14" stroke="#262626" stroke-width="0.9"/>
<text x="39" y="17" font-size="8.5" text-anchor="end" fill="#262626">2</text>
<text x="257" y="352" font-size="10" text-anchor="middle" fill="#262626">Regime</text>
<text x="12" y="169" font-size="10" fill="#262626" text-anchor="middle" transform="rotate(-90 12 169)">Normalized nonsense</text>
<rect x="317.6" y="20" width="144.4" height="60" fill="#ffffff" opacity="0.9" stroke="#8c8c8c" stroke-width="0.7"/>
<rect x="323.6" y="25.5" width="12" height="8" fill="#1f77b4" stroke="#262626" stroke-width="0.5"/>
<text x="343.6" y="33" font-size="8.5" text-anchor="start" fill="#262626" font-weight="600">AWOM (ours)</text>
<rect x="323.6" y="38.5" width="12" height="8" fill="#d62728" stroke="#262626" stroke-width="0.5"/>
<text x="343.6" y="46" font-size="8.5" text-anchor="start" fill="#262626">Ours (v2)</text>
<rect x="323.6" y="51.5" width="12" height="8" fill="#ff7f0e" stroke="#262626" stroke-width="0.5"/>
<text x="343.6" y="59" font-size="8.5" text-anchor="start" fill="#262626">Quasi-SOTA [2]</text>
<rect x="323.6" y="64.5" width="12" height="8" fill="#2ca02c" stroke="#262626" stroke-width="0.5"/>
<text x="343.6" y="72" font-size="8.5" text-anchor="start" fill="#262626">Snaggle and Quabosh [2]</text>
</g>
<text x="14" y="372" font-size="10" text-anchor="start" fill="#262626">Scaling of Normalized nonsense with Regime for AWOM (ours) and baselines. Results averaged</text>
<text x="14" y="385" font-size="10" text-anchor="start" fill="#262626">over a single run. ★ denotes results reported in [28]. Error bars denote one standard</text>
<text x="14" y="398" font-size="10" text-anchor="start" fill="#262626">deviation over 5 runs.</text>
</svg>
