<svg xmlns="http://www.w3.org/2000/svg" viewBox="0 0 480 402" width="480" height="402" font-family="'DejaVu Sans', 'Helvetica Neue', Helvetica, Arial, sans-serif" role="img">
<title>Figure 1: Comparison of CQDN (ours) against two baselines on the Nozzle objective. Each violin summarizes 5 runs. Best viewed in color. Results averaged over a single run.</title>
<defs><pattern id="hatch0" width="5" height="5" patternUnits="userSpaceOnUse" patternTransform="rotate(45)"><line x1="0" y1="0" x2="0" y2="5" stroke="#555555" stroke-width="1"/></pattern><pattern id="hatch1" width="5" height="5" patternUnits="userSpaceOnUse" patternTransform="rotate(135)"><line x1="0" y1="0" x2="0" y2="5" stroke="#555555" stroke-width="1"/></pattern><pattern id="hatch2" width="5" height="5" patternUnits="userSpaceOnUse" patternTransform="rotate(0)"><line x1="0" y1="0" x2="0" y2="5" stroke="#555555" stroke-width="1"/></pattern><pattern id="hatch3" width="5" height="5" patternUnits="userSpaceOnUse" patternTransform="rotate(90)"><line x1="0" y1="0" x2="0" y2="5" stroke="#555555" stroke-width="1"/></pattern></defs>
<rect x="0" y="0" width="480" height="402" fill="#ffffff"/>
<g transform="translate(0,0)">
<clipPath id="clip0"><rect x="46" y="14" width="422" height="310" /></clipPath>
<g clip-path="url(#clip0)">
<polygon points="117.34,226.82 119,221.47 122.48,216.12 128.68,210.77 137.9,205.41 149.11,200.06 159.79,194.71 166.97,189.36 166.97,184 166.97,178.65 166.97,173.3 166.97,167.94 160.47,162.59 142.08,157.24 127.2,151.89 119.67,146.53 113,146.53 105.47,151.89 90.59,157.24 72.19,162.59 65.69,167.94 65.69,173.3 65.69,178.65 65.69,184 65.69,189.36 72.87,194.71 83.56,200.06 94.77,205.41 103.98,210.77 110.18,216.12 113.67,221.47 115.33,226.82" fill="#1f77b4" opacity="0.55" stroke="#1f77b4" stroke-width="0.9"/>
<rect x="113.83" y="177.07" width="5" height="19.21" fill="#ffffff" opacity="0.9" stroke="#262626" stroke-width="0.7"/>
<line x1="113.83" y1="186.68" x2="118.83" y2="186.68" stroke="#262626" stroke-width="1.4"/>
<polygon points="258,163.58 259.67,158.33 263.15,153.09 269.35,147.84 278.56,142.59 289.76,137.34 300.29,132.09 306.77,126.84 306.77,121.59 300.29,116.35 289.76,111.1 278.56,105.85 269.35,100.6 263.15,95.35 259.67,90.1 258,84.85 256,84.85 254.33,90.1 250.85,95.35 244.65,100.6 235.44,105.85 224.24,111.1 213.71,116.35 207.23,121.59 207.23,126.84 213.71,132.09 224.24,137.34 235.44,142.59 244.65,147.84 250.85,153.09 254.33,158.33 256,163.58" fill="#ff7f0e" opacity="0.55" stroke="#ff7f0e" stroke-width="0.9"/>
<rect x="254.5" y="114.8" width="5" height="18.84" fill="#ffffff" opacity="0.9" stroke="#262626" stroke-width="0.7"/>
<line x1="254.5" y1="124.22" x2="259.5" y2="124.22" stroke="#262626" stroke-width="1.4"/>
<polygon points="398.67,212.55 400.33,207.43 403.82,202.32 410.02,197.2 419.23,192.09 430.43,186.97 440.96,181.86 447.43,176.74 447.43,171.63 440.96,166.52 430.43,161.4 419.23,156.29 410.02,151.17 403.82,146.06 400.33,140.94 398.67,135.83 396.66,135.83 395,140.94 391.52,146.06 385.32,151.17 376.1,156.29 364.91,161.4 354.38,166.52 347.9,171.63 347.9,176.74 354.38,181.86 364.91,186.97 376.1,192.09 385.32,197.2 391.52,202.32 395,207.43 396.66,212.55" fill="#2ca02c" opacity="0.55" stroke="#2ca02c" stroke-width="0.9"/>
<rect x="395.17" y="165.01" width="5" height="18.36" fill="#ffffff" opacity="0.9" stroke="#262626" stroke-width="0.7"/>
<line x1="395.17" y1="174.19" x2="400.17" y2="174.19" stroke="#262626" stroke-width="1.4"/>
<text x="257" y="134.46" font-size="9.5" text-anchor="middle" fill="#262626">★★</text>
</g>
<rect x="46" y="14" width="422" height="310" fill="none" stroke="#262626" stroke-width="0.9"/>
<line x1="116.33" y1="324" x2="116.33" y2="328" stroke="#262626" stroke-width="0.9"/>
<text x="116.33" y="338" font-size="8.5" text-anchor="middle" fill="#262626" font-weight="600">CQDN (ours)</text>
<line x1="257" y1="324" x2="257" y2="328" stroke="#262626" stroke-width="0.9"/>
<text x="257" y="338" font-size="8.5" text-anchor="middle" fill="#262626">Prior work [4]</text>
<line x1="397.67" y1="324" x2="397.67" y2="328" stroke="#262626" stroke-width="0.9"/>
<text x="397.67" y="338" font-size="8.5" text-anchor="middle" fill="#262626">Baseline</text>
<line x1="46" y1="324" x2="42" y2="324" stroke="#262626" stroke-width="0.9"/>
<text x="39" y="327" font-size="8.5" text-anchor="end" fill="#262626">-0.5</text>
<line x1="46" y1="246.5" x2="42" y2="246.5" stroke="#262626" stroke-width="0.9"/>
<text x="39" y="249.5" font-size="8.5" text-anchor="end" fill="#262626">0</text>
<line x1="46" y1="169" x2="42" y2="169" stroke="#262626" stroke-width="0.9"/>
<text x="39" y="172" font-size="8.5" text-anchor="end" fill="#262626">0.5</text>
<line x1="46" y1="91.5" x2="42" y2="91.5" stroke="#262626" stroke-width="0.9"/>
<text x="39" y="94.5" font-size="8.5" text-anchor="end" fill="#262626">1</text>
<line x1="46" y1="14" x2="42" y2="14" stroke="#262626" stroke-width="0.9"/>
<text x="39" y="17" font-size="8.5" text-anchor="end" fill="#262626">1.5</text>
<text x="257" y="352" font-size="10" text-anchor="middle" fill="#262626">Method</text>
<text x="12" y="169" font-size="10" fill="#262626" text-anchor="middle" transform="rotate(-90 12 169)">Relative error</text>
</g>
<text x="14" y="372" font-size="10" text-anchor="start" fill="#262626">Comparison of CQDN (ours) against two baselines on the Nozzle objective. Each violin</text>
<text x="14" y="385" font-size="10" text-anchor="start" fill="#262626">summarizes 5 runs. Best viewed in color. Results averaged over a single run.</text>
</svg>
